PathFileType	4	(X/Y/Z)	Patient4_TMGait_0pt4_02_right_35.trc.trc
DataRate	CameraRate	NumFrames	NumMarkers	Units	OrigDataRate	OrigDataStartFrame	OrigNumFrames
72.164948453608	72.164948453608	4	33	mm	72.164948453608	36	       141
Frame#	Time	Sacral			L.Shoulder			Chest			R.Shoulder			Neck			R.ASIS			L.ASIS			R.Thigh.Superior			R.Thigh.Lateral			R.Thigh.Inferior			R.Patella			L.Thigh.Superior			L.Thigh.Lateral			L.Thigh.Inferior			L.Patella			L.Shank.Superior			L.Shank.Lateral			L.Shank.Inferior			R.Shank.Superior			R.Shank.Lateral			R.Shank.Inferior			R.Heel			R.Midfoot.Superior			R.Midfoot.Lateral			R.Toe			L.Heel			L.Midfoot.Lateral			L.Midfoot.Superior			L.Toe			L.Elbow			L.Wrist			R.Elbow			R.Wrist			
		X1	Y1	Z1	X2	Y2	Z2	X3	Y3	Z3	X4	Y4	Z4	X5	Y5	Z5	X6	Y6	Z6	X7	Y7	Z7	X8	Y8	Z8	X9	Y9	Z9	X10	Y10	Z10	X11	Y11	Z11	X12	Y12	Z12	X13	Y13	Z13	X14	Y14	Z14	X15	Y15	Z15	X16	Y16	Z16	X17	Y17	Z17	X18	Y18	Z18	X19	Y19	Z19	X20	Y20	Z20	X21	Y21	Z21	X22	Y22	Z22	X23	Y23	Z23	X24	Y24	Z24	X25	Y25	Z25	X26	Y26	Z26	X27	Y27	Z27	X28	Y28	Z28	X29	Y29	Z29	X30	Y30	Z30	X31	Y31	Z31	X32	Y32	Z32	X33	Y33	Z33	

36	46.595000000000	842.923503248825	991.695475361784	474.902621503601	1003.123111506206	1433.979487469722	301.732040318706	1101.412631351286	1371.424581465123	467.710152739224	1002.689611158972	1432.848321565805	638.423032481611	972.076648782511	1491.924988156841	459.009845342856	1075.362469434148	940.368414640834	595.746471462729	1063.177569422241	966.580898070099	321.541015825043	1139.429593725426	748.838595321735	561.966206055231	1073.123980004966	631.754058377597	626.976700840724	1155.041966628427	587.459519656878	545.970376687213	1165.191093976062	498.742431116035	553.751230497738	1093.194503878864	739.430606131930	340.302842059180	992.736379462257	630.188976077487	275.583943568501	1072.384373558539	542.411181182040	332.423263895265	1063.811597866947	462.973075911093	331.634854644116	1009.288125076106	400.872388682942	323.765250240539	882.904570038208	326.764546668661	274.674082829800	900.078758648647	198.999460912432	332.686950218371	1138.571811365990	407.290250027640	564.538015517833	1071.157749354940	304.498605298959	633.399114442792	1113.385819177257	208.547608063860	571.031382260850	982.412800868459	42.045572843562	550.049905507944	1153.014639952559	98.370079867228	580.031876939884	1067.683273953094	37.212155581403	622.877230858819	1274.725695162971	49.775480797635	605.584606693693	735.700196854202	77.894200249700	371.866273842759	804.799043905575	57.255531570781	291.323923074069	898.552728499923	103.739967678899	314.477556529808	1011.908336687356	36.422052574550	285.057249804372	1048.032176285031	1097.384740602441	153.326185395785	1256.361406062057	940.142278577657	119.583310099554	936.600944035371	1085.052406790280	741.924443371306	1004.721797393955	832.253694398081	738.724760898017	
37	46.608857142857	842.335051401547	992.684525945949	479.930350768575	1001.335896527666	1434.977280139515	305.911940834318	1101.637195974028	1371.847829611368	470.441153324947	1005.402397683785	1433.165866857196	642.462401628171	972.191001912674	1492.627503048589	463.506636598424	1075.943551669763	941.129034560858	598.249338452634	1061.436746050099	967.251106899605	324.142046764619	1137.503648982874	748.195737635651	565.467802937266	1069.626770812927	632.023037293191	630.027989777779	1150.868977415151	586.958004127610	548.843084570335	1159.914532620630	498.442482325631	556.281203136580	1097.439232698573	742.281316031987	343.343225105923	1001.845138718409	630.290805694938	277.925030355600	1085.055117402496	544.454582501517	334.185086938431	1078.009731429547	463.368744694541	332.261095342250	1020.687995415732	401.478988438449	324.794859138933	891.287186737312	332.653675098554	275.897844980131	903.702182979715	204.136239482038	333.077739130625	1133.351637159040	407.061589286912	566.777755383173	1065.883521111548	304.003650227564	635.094147476956	1108.077850563130	208.374680429328	572.161995793425	976.947019063090	41.938395218678	550.257217274461	1147.589367685730	98.350056904822	580.461899003297	1062.252626388172	37.123474764006	623.133828783004	1269.308651491460	49.865039019418	605.729449056252	734.370916723125	91.117910650499	371.964217898954	802.172343153514	66.365617134403	291.604920826747	898.121975181505	107.965322382003	314.299534331222	1006.942822871754	35.567699275574	285.296338956080	1042.567553472035	1097.121537919639	158.923869023077	1242.549842656566	929.199378615955	125.098381675671	946.425448636573	1083.879884937226	747.164227023888	1025.348502618716	834.318804978073	742.614636632895	
38	46.622714285714	841.564936827955	993.728081168744	484.902470322667	999.394756932592	1435.954194024484	309.939420561866	1101.831313123551	1372.196488066257	472.906047049982	1008.314922181584	1433.486222571783	646.307211119494	972.347851717596	1493.333851856661	467.845154955451	1076.267423864786	941.920916265228	600.592171713130	1059.226864746131	967.758431182894	326.629887212856	1135.143762693710	747.574136352898	568.970645794134	1065.671890628418	632.312239028911	633.103468253589	1146.266926089352	586.479412854677	551.785456676247	1154.198140057536	498.194862536121	558.940821741563	1101.651201219800	745.578395934826	346.300854868877	1011.465432528463	630.901766901129	279.833960927819	1098.163382780346	547.284371454508	335.601754726157	1092.774686849914	464.669190534141	332.636368670878	1032.943081547385	402.775121822748	325.573839002661	900.742181246850	339.149412272761	276.914594687072	908.439253239212	210.088670955258	333.486892205197	1127.736918804672	406.909738495440	569.127267765210	1060.199913894723	303.536990875954	636.799046899633	1102.513504162437	208.255930496345	573.366537926120	971.386838979064	41.849675437604	550.446548705890	1142.090822318881	98.282323148648	580.893797188145	1056.723517772798	37.018636956765	623.372601966062	1263.797667996951	49.874355859789	605.866532740778	734.323267597413	105.427765736516	372.289588723607	800.672840154364	76.596705386505	292.030077609983	898.795852515171	113.049406787753	314.284651030205	1002.861007464901	35.009567694162	285.598464565456	1036.693278040770	1096.818268052729	164.461462865393	1227.671660813052	918.443925255348	130.916803592795	956.822249160063	1082.998006582528	752.534280431550	1046.933710624088	837.352965195507	746.418361076268	
39	46.636571428571	840.660350168129	994.764223929374	489.762729614618	997.338611405810	1436.863427523757	313.771290441322	1101.972602317904	1372.449824270142	475.107795151166	1011.319440965147	1433.774831677876	649.922416182847	972.538489927770	1494.015200415466	471.978637784184	1076.343237393673	942.710286144636	602.799627033270	1056.603041184102	968.059018180231	329.036217738519	1132.456527417328	747.000383248555	572.360049368509	1061.462850337482	632.608798042869	636.134961406866	1141.413132124486	586.031698635378	554.699643708588	1148.231581234271	497.990882477554	561.635440158670	1105.689919393736	749.271152367409	349.111981527918	1021.244273871746	632.079724535624	281.297335402679	1111.279351394115	550.909270725132	336.607805100805	1107.683595098629	466.921683597498	332.706047395811	1045.712428437931	404.789124020692	326.057089985153	910.987401494518	346.034632906867	277.730892356510	914.260555757289	216.608423509603	333.901844623452	1121.903283649780	406.817200875845	571.499701661975	1054.283788331996	303.106855325912	638.469404689088	1096.797154327881	208.177091357888	574.590333004123	965.761987895502	41.785106791438	550.624249035713	1136.542313431141	98.179524081469	581.312536046461	1051.122678237422	36.908647209782	623.595080127683	1258.221203489375	49.803174840866	605.998819263633	735.758978181861	120.072783003503	372.854009457475	800.588792535131	87.439106463983	292.595132074387	900.747188393675	118.802135394307	314.428352775189	1000.129260062255	34.853532848674	285.899771797964	1030.330866897459	1096.409790690875	169.927461137395	1211.758863873894	907.994910898890	137.016919537000	967.741912960776	1082.376958777008	757.952414594548	1069.332141929864	841.372121975653	750.075244515887	
